# xmcd
#
# Track frame offsets:
# 150
# 18391
# 38060
# 55848
# 72411
# 92999
# 110063
# 127364
# 145083
# 167733
# 188071
# 205832
# 224693
# 244181
# 263920
# 284829
# 301837
#
# Disc length: 4307 seconds
#
#
# Revision: 7
# Processed by: cddbd v1.5.1PL0 Copyright (c) Steve Scherf et al.
# Submitted via: FreeRIP 2.90 
#
DISCID=1010d111
DTITLE=陈慧娴 - 陈慧娴 (宝丽金88 极品音色系列)
DYEAR=1996
DGENRE=Folk
TTITLE0=逝去的诺言
TTITLE1=玻璃窗的爱
TTITLE2=花店
TTITLE3=痴情意外
TTITLE4=与泪抱拥
TTITLE5=去吧
TTITLE6=傻女
TTITLE7=人生何处不相蓬
TTITLE8=干干阙歌
TTITLE9=夜机
TTITLE10=飘雪
TTITLE11=红茶馆
TTITLE12=今天的爱人是谁
TTITLE13=我寂寞
TTITLE14=留恋
TTITLE15=今天夜里总下雨
TTITLE16=月亮
EXTD=ID3G:   0
EXTT0=
EXTT1=
EXTT2=
EXTT3=
EXTT4=
EXTT5=
EXTT6=
EXTT7=
EXTT8=
EXTT9=
EXTT10=
EXTT11=
EXTT12=
EXTT13=
EXTT14=
EXTT15=
EXTT16=
PLAYORDER=
